<svg xmlns="http://www.w3.org/2000/svg" viewBox="0 0 173 33">
<style type="text/css">
	.st0{fill:#F3BB2D;}
	.st1{fill:#FFFFFF;}
</style>
<g>
	<g transform="translate(-106.000000, -170.000000)">
		<g transform="translate(106.000000, 170.000000)">
			<path class="st0" d="M14.8,16.6c0,0.9,0.7,1.6,1.6,1.6c0.9,0,1.6-0.7,1.6-1.6c0-0.9-0.7-1.6-1.6-1.6
				C15.5,15,14.8,15.7,14.8,16.6"/>
			<path class="st0" d="M28.3,15c-0.9,0-1.6,0.7-1.6,1.6c0,0.9,0.7,1.6,1.6,1.6c0.9,0,1.6-0.7,1.6-1.6
				C29.9,15.7,29.2,15,28.3,15"/>
			<path class="st0" d="M28.3,27.1c-0.9,0-1.6,0.7-1.6,1.6c0,0.9,0.7,1.6,1.6,1.6c0.9,0,1.6-0.7,1.6-1.6
				C29.9,27.8,29.2,27.1,28.3,27.1"/>
			<path class="st0" d="M31.7,1.7c-1.6-2-4.5-2.1-6.2-0.5c-0.1,0.1-0.1,0.1-0.2,0.2l-0.4,0.3c-1.6,1.3-4,1.2-5.5-0.3
				l0-0.1c-0.5-0.5-1.2-0.9-1.9-1.1c0,0,0,0,0,0c-0.1,0-0.3-0.1-0.4-0.1c0,0-0.1,0-0.1,0c-0.1,0-0.2,0-0.3,0c-0.1,0-0.1,0-0.2,0
				c-0.1,0-0.2,0-0.2,0c-0.1,0-0.1,0-0.2,0c-0.1,0-0.1,0-0.2,0c-0.1,0-0.2,0-0.2,0c-0.1,0-0.1,0-0.2,0c-0.1,0-0.2,0-0.3,0.1
				c-0.1,0-0.1,0-0.2,0c-0.1,0-0.2,0.1-0.3,0.1c0,0-0.1,0-0.1,0.1c-0.1,0-0.2,0.1-0.3,0.1c0,0-0.1,0-0.1,0.1
				c-0.1,0.1-0.2,0.1-0.3,0.2c0,0-0.1,0-0.1,0.1C13.7,1,13.6,1,13.5,1.1c0,0-0.1,0.1-0.1,0.1c0,0,0,0,0,0c-0.1,0.1-0.1,0.1-0.2,0.2
				l-0.4,0.3c-1.6,1.3-4,1.2-5.4-0.3c0,0-0.1,0-0.1-0.1l0,0c0,0,0,0,0,0C7.2,1.2,7.2,1.2,7.1,1.1C6.5,0.6,5.8,0.2,5,0.1c0,0,0,0,0,0
				c-0.1,0-0.2,0-0.4,0c0,0-0.1,0-0.1,0c-0.1,0-0.2,0-0.3,0c-0.1,0-0.1,0-0.2,0c-0.1,0-0.2,0-0.2,0c-0.1,0-0.1,0-0.2,0
				c-0.1,0-0.2,0-0.3,0c0,0-0.1,0-0.1,0C3.2,0.2,3.1,0.2,3,0.3c0,0,0,0-0.1,0c-0.5,0.2-1,0.4-1.4,0.8c0,0,0,0-0.1,0.1c0,0,0,0,0,0
				C1.3,1.3,1.2,1.4,1.1,1.5c0,0,0,0,0,0c0,0,0,0,0,0C0.7,1.9,0.5,2.4,0.3,2.8c0,0,0,0,0,0c0,0.1-0.1,0.2-0.1,0.3c0,0,0,0,0,0
				c0,0.1-0.1,0.2-0.1,0.4c0,0,0,0,0,0C0,4.2,0,4.9,0.2,5.6c0,0.1,0.1,0.2,0.1,0.3c0,0,0,0.1,0,0.1c0,0.1,0.1,0.2,0.1,0.3
				c0,0,0,0,0,0c0.1,0.1,0.1,0.2,0.2,0.4c0,0,0,0,0,0C0.8,6.8,1,7,1.1,7.1c0.1,0.1,0.1,0.1,0.2,0.2c0,0,0,0,0,0l0,0
				c0.1,0.1,0.1,0.1,0.2,0.2C3,9,3,11.6,1.4,13.2c-0.2,0.2-0.5,0.5-0.6,0.7c0,0,0,0,0,0c-0.1,0.1-0.1,0.2-0.2,0.4c0,0,0,0,0,0.1
				c-0.1,0.1-0.1,0.2-0.2,0.3c0,0,0,0.1,0,0.1c0,0.1-0.1,0.2-0.1,0.3c0,0,0,0.1,0,0.1c0,0.1,0,0.2-0.1,0.3c0,0,0,0.1,0,0.1
				c0,0.1,0,0.2,0,0.3c0,0.1,0,0.1,0,0.2c0,0.1,0,0.2,0,0.2c0,0.1,0,0.1,0,0.2c0,0.1,0,0.1,0,0.2c0,0.1,0,0.2,0,0.2c0,0,0,0.1,0,0.1
				c0,0.1,0,0.2,0.1,0.3c0,0,0,0,0,0.1c0.2,0.7,0.6,1.4,1.2,2c1.6,1.6,1.6,4.2,0,5.8c0,0,0,0-0.1,0.1c-0.1,0.1-0.2,0.2-0.2,0.2
				c0,0,0,0,0,0c0,0,0,0,0,0.1c-0.1,0.1-0.2,0.2-0.2,0.3c0,0,0,0.1-0.1,0.1c-0.1,0.1-0.1,0.2-0.2,0.3c0,0-0.1,0.1-0.1,0.1
				c0,0.1-0.1,0.1-0.1,0.2c0,0.1-0.1,0.1-0.1,0.2c0,0.1,0,0.1-0.1,0.2C0.1,27.4,0,27.9,0,28.3c0,0,0,0,0,0c0,0.1,0,0.2,0,0.3
				c0,0,0,0,0,0.1c0,0.1,0,0.2,0,0.3c0,0,0,0,0,0.1c0.1,0.3,0.1,0.6,0.3,0.8c0,0.1,0.1,0.2,0.1,0.2c0,0,0,0.1,0.1,0.1
				c0,0.1,0.1,0.2,0.1,0.3c0,0,0,0.1,0.1,0.1C0.8,30.8,0.9,30.9,1,31c0,0,0,0.1,0.1,0.1c0,0,0,0.1,0.1,0.1c0,0.1,0.1,0.1,0.1,0.1
				c0,0,0.1,0.1,0.1,0.1c0.1,0.1,0.2,0.1,0.2,0.2c0,0,0.1,0.1,0.1,0.1c0,0,0,0,0,0c0,0,0.1,0,0.1,0.1C1.9,31.9,2,32,2.1,32
				c0,0,0.1,0,0.1,0.1c0.1,0.1,0.2,0.1,0.3,0.2c0,0,0,0,0.1,0c0.1,0.1,0.2,0.1,0.4,0.1c0,0,0,0,0,0c0.1,0,0.3,0.1,0.4,0.1
				c0,0,0,0,0.1,0c0.1,0,0.2,0,0.3,0.1c0,0,0.1,0,0.1,0c0.1,0,0.2,0,0.3,0c0,0,0.1,0,0.1,0c0.1,0,0.2,0,0.3,0c0,0,0.1,0,0.1,0
				c0.3,0,0.5-0.1,0.8-0.1c0,0,0,0,0.1,0c0.1,0,0.2-0.1,0.3-0.1c0,0,0.1,0,0.1,0c0.1,0,0.2-0.1,0.3-0.1c0,0,0,0,0.1,0
				c0.2-0.1,0.5-0.3,0.7-0.4c0,0,0,0,0,0c0,0,0,0,0,0c0.1-0.1,0.2-0.2,0.3-0.3l0.1-0.1c1.6-1.7,4.2-1.7,5.8,0
				c1.8,1.9,4.8,1.8,6.5-0.3c1.2-1.5,1.2-3.7,0-5.3c-1.6-2-4.5-2.1-6.2-0.5c-0.1,0.1-0.1,0.1-0.2,0.2l-0.4,0.3
				c-1.6,1.3-4,1.2-5.5-0.3c-0.1-0.1-0.1-0.1-0.2-0.2l-0.3-0.4c-1.3-1.6-1.2-4,0.3-5.5c0.9-0.8,1.3-1.9,1.3-3c0-0.1,0-0.1,0-0.2
				c0,0,0,0,0-0.1c0-1-0.4-2-1.2-2.7c0-0.1-0.1-0.1-0.1-0.2l-0.3-0.4c-1.3-1.6-1.2-4,0.3-5.5c0,0,0,0,0.1-0.1l0.1-0.1
				c1.6-1.7,4.2-1.7,5.8,0c0,0,0.1,0.1,0.1,0.1c0,0,0.1,0.1,0.1,0.1c0.1,0.1,0.1,0.1,0.2,0.2c0.1,0,0.1,0.1,0.2,0.1
				c0.1,0,0.1,0.1,0.2,0.1c0.1,0,0.1,0.1,0.2,0.1c0.1,0,0.1,0.1,0.2,0.1c0.1,0,0.1,0.1,0.2,0.1c0.1,0,0.1,0.1,0.2,0.1
				c0.1,0,0.1,0,0.2,0.1c0.1,0,0.1,0,0.2,0.1c0.1,0,0.1,0,0.2,0c0.1,0,0.1,0,0.2,0c0.1,0,0.2,0,0.2,0c0.1,0,0.1,0,0.2,0
				c0.1,0,0.2,0,0.2,0c0.1,0,0.1,0,0.2,0c0.1,0,0.2,0,0.3,0c0.1,0,0.1,0,0.2,0c0.1,0,0.2,0,0.3-0.1c0.1,0,0.1,0,0.2,0
				c0.1,0,0.2-0.1,0.3-0.1c0,0,0.1,0,0.1,0c0.1,0,0.2-0.1,0.4-0.2c0,0,0,0,0,0c0.4-0.2,0.8-0.5,1.1-0.8l0.1-0.1
				c1.6-1.7,4.2-1.7,5.8,0C27,9.1,30.1,9,31.7,6.9C32.9,5.4,32.9,3.2,31.7,1.7"/>
			<path class="st1" d="M54.5,14.1c-0.6-0.6-1.1-1-1.8-1.3c-0.6-0.3-1.3-0.5-2.2-0.5c-0.8,0-1.6,0.2-2.2,0.5
				c-0.6,0.3-1.1,0.7-1.5,1.3c-0.4,0.5-0.7,1.1-0.9,1.8c-0.2,0.7-0.3,1.4-0.3,2.1c0,0.7,0.1,1.4,0.4,2.1c0.2,0.7,0.6,1.2,1,1.7
				c0.4,0.5,1,0.9,1.6,1.2c0.6,0.3,1.3,0.4,2.1,0.4c0.9,0,1.6-0.2,2.2-0.5c0.6-0.3,1.2-0.7,1.7-1.3l2.1,2.2
				c-0.8,0.9-1.7,1.5-2.7,1.9c-1,0.4-2.1,0.6-3.3,0.6c-1.2,0-2.4-0.2-3.4-0.6c-1-0.4-1.9-1-2.6-1.7c-0.7-0.7-1.3-1.6-1.7-2.6
				c-0.4-1-0.6-2.2-0.6-3.4c0-1.2,0.2-2.4,0.6-3.4c0.4-1,1-1.9,1.7-2.7c0.7-0.7,1.6-1.3,2.6-1.7c1-0.4,2.2-0.6,3.4-0.6
				c1.2,0,2.3,0.2,3.3,0.6c1.1,0.4,2,1.1,2.8,1.9L54.5,14.1"/>
			<path class="st1" d="M61.3,17.8c0,0.8,0.1,1.6,0.4,2.2c0.2,0.7,0.6,1.3,1,1.8c0.4,0.5,1,0.9,1.6,1.1
				c0.6,0.3,1.4,0.4,2.2,0.4c0.8,0,1.5-0.1,2.2-0.4c0.6-0.3,1.2-0.7,1.6-1.1c0.4-0.5,0.8-1.1,1-1.8c0.2-0.7,0.4-1.4,0.4-2.2
				c0-0.8-0.1-1.6-0.4-2.2c-0.2-0.7-0.6-1.3-1-1.8c-0.4-0.5-1-0.9-1.6-1.1c-0.6-0.3-1.4-0.4-2.2-0.4c-0.8,0-1.5,0.1-2.2,0.4
				c-0.6,0.3-1.2,0.7-1.6,1.1c-0.4,0.5-0.8,1.1-1,1.8C61.5,16.3,61.3,17,61.3,17.8z M58.1,17.8c0-1.2,0.2-2.3,0.6-3.3
				c0.4-1,1-1.9,1.8-2.7c0.8-0.8,1.6-1.4,2.7-1.8c1-0.4,2.1-0.7,3.3-0.7c1.2,0,2.3,0.2,3.3,0.7c1,0.4,1.9,1,2.7,1.8
				c0.8,0.8,1.3,1.7,1.8,2.7c0.4,1,0.6,2.1,0.6,3.3c0,1.2-0.2,2.3-0.6,3.3c-0.4,1-1,1.9-1.8,2.7c-0.8,0.8-1.6,1.3-2.7,1.8
				c-1,0.4-2.1,0.7-3.3,0.7c-1.2,0-2.3-0.2-3.3-0.7c-1-0.4-1.9-1-2.7-1.8c-0.8-0.8-1.3-1.6-1.8-2.7C58.4,20.1,58.1,19,58.1,17.8z"/>
			<path class="st1" d="M78,25.9h3v-16h-3V25.9z M77.3,4.1c0-0.6,0.2-1.1,0.6-1.6c0.4-0.4,0.9-0.7,1.5-0.7
				c0.6,0,1.1,0.2,1.5,0.7c0.4,0.4,0.6,1,0.6,1.6c0,0.6-0.2,1.1-0.6,1.6c-0.4,0.4-0.9,0.7-1.5,0.7c-0.6,0-1.1-0.2-1.5-0.7
				C77.5,5.3,77.3,4.7,77.3,4.1z"/>
			<path class="st1" d="M85.2,9.9h3v2.5h0.1c0.4-0.9,1-1.6,2-2.1c0.9-0.5,2-0.8,3.3-0.8c0.8,0,1.5,0.1,2.2,0.4
				c0.7,0.2,1.3,0.6,1.8,1.1c0.5,0.5,0.9,1.1,1.3,1.9c0.3,0.8,0.5,1.7,0.5,2.8v10.3h-3v-9.5c0-0.7-0.1-1.4-0.3-1.9
				c-0.2-0.5-0.5-1-0.8-1.3c-0.3-0.3-0.7-0.6-1.2-0.7c-0.4-0.1-0.9-0.2-1.4-0.2c-0.6,0-1.2,0.1-1.7,0.3c-0.5,0.2-1,0.5-1.4,1
				c-0.4,0.4-0.7,1-0.9,1.7c-0.2,0.7-0.3,1.5-0.3,2.4v8.3h-3V9.9"/>
			<path  class="st1" d="M110.5,23.4c0.8,0,1.5-0.1,2.2-0.4c0.7-0.3,1.2-0.7,1.7-1.2c0.4-0.5,0.8-1.1,1-1.8
				c0.2-0.7,0.4-1.4,0.4-2.3c0-0.8-0.1-1.6-0.4-2.3c-0.2-0.7-0.6-1.3-1-1.8c-0.5-0.5-1-0.9-1.7-1.2c-0.7-0.3-1.4-0.4-2.2-0.4
				c-0.8,0-1.5,0.1-2.2,0.4c-0.7,0.3-1.2,0.7-1.7,1.2c-0.4,0.5-0.8,1.1-1,1.8c-0.2,0.7-0.4,1.4-0.4,2.3c0,0.8,0.1,1.6,0.4,2.3
				c0.2,0.7,0.6,1.3,1,1.8c0.4,0.5,1,0.9,1.7,1.2C108.9,23.2,109.7,23.4,110.5,23.4z M118.8,25.8h-3v-2.3h-0.1
				c-0.6,0.9-1.4,1.5-2.4,2c-1,0.5-2.1,0.7-3.2,0.7c-1.2,0-2.4-0.2-3.4-0.6c-1-0.4-1.9-1-2.6-1.8c-0.7-0.8-1.3-1.7-1.6-2.7
				c-0.4-1-0.6-2.1-0.6-3.3c0-1.2,0.2-2.3,0.6-3.4c0.4-1,0.9-1.9,1.6-2.7c0.7-0.8,1.6-1.4,2.6-1.8c1-0.4,2.1-0.6,3.4-0.6
				c1.1,0,2.2,0.2,3.2,0.7c1,0.5,1.8,1.2,2.3,2h0.1V0h3V25.8z"/>
			<path  class="st1" d="M134.1,16.5c0-0.7-0.1-1.3-0.3-1.9c-0.2-0.6-0.5-1.1-0.9-1.5c-0.4-0.4-0.9-0.7-1.4-1
				c-0.6-0.2-1.2-0.4-2-0.4c-0.7,0-1.4,0.1-2,0.4c-0.6,0.3-1.1,0.6-1.6,1.1c-0.4,0.4-0.8,0.9-1,1.5c-0.2,0.6-0.4,1.1-0.4,1.6H134.1z
				 M124.5,19c0,0.7,0.2,1.3,0.5,1.9c0.3,0.6,0.7,1.1,1.2,1.5c0.5,0.4,1.1,0.7,1.7,0.9c0.7,0.2,1.3,0.3,2,0.3c0.9,0,1.8-0.2,2.5-0.7
				c0.7-0.4,1.3-1,1.9-1.7l2.3,1.8c-1.7,2.2-4.1,3.3-7.1,3.3c-1.3,0-2.4-0.2-3.4-0.6c-1-0.4-1.9-1-2.6-1.8c-0.7-0.8-1.3-1.6-1.6-2.7
				c-0.4-1-0.6-2.1-0.6-3.3c0-1.2,0.2-2.3,0.6-3.3c0.4-1,1-1.9,1.7-2.7c0.7-0.8,1.6-1.3,2.6-1.8c1-0.4,2.1-0.6,3.3-0.6
				c1.4,0,2.6,0.2,3.6,0.7c1,0.5,1.8,1.1,2.4,1.9c0.6,0.8,1.1,1.7,1.4,2.7c0.3,1,0.4,2,0.4,3.1V19H124.5z"/>
			<path  class="st1" d="M149.1,13.9c-0.4-0.4-0.8-0.8-1.3-1.1c-0.5-0.3-1.2-0.5-1.9-0.5c-0.7,0-1.3,0.2-1.9,0.5
				c-0.5,0.3-0.8,0.7-0.8,1.3c0,0.5,0.2,0.9,0.5,1.1c0.3,0.3,0.7,0.5,1.1,0.7c0.4,0.2,0.9,0.3,1.3,0.4c0.5,0.1,0.9,0.2,1.2,0.2
				c0.6,0.2,1.3,0.3,1.8,0.6c0.6,0.2,1.1,0.5,1.5,0.9c0.4,0.4,0.7,0.8,1,1.3c0.2,0.5,0.4,1.1,0.4,1.9c0,0.9-0.2,1.7-0.6,2.3
				c-0.4,0.6-0.9,1.2-1.5,1.6c-0.6,0.4-1.3,0.7-2.1,0.9c-0.8,0.2-1.6,0.3-2.3,0.3c-1.3,0-2.5-0.2-3.5-0.6c-1-0.4-1.9-1.1-2.7-2.2
				l2.3-1.9c0.5,0.5,1,0.9,1.6,1.3c0.6,0.4,1.3,0.6,2.2,0.6c0.4,0,0.8,0,1.2-0.1c0.4-0.1,0.7-0.2,1-0.4c0.3-0.2,0.5-0.4,0.7-0.6
				c0.2-0.3,0.3-0.6,0.3-0.9c0-0.4-0.1-0.8-0.4-1.1c-0.3-0.3-0.6-0.5-1-0.7c-0.4-0.2-0.8-0.3-1.2-0.4c-0.4-0.1-0.8-0.2-1.2-0.3
				c-0.6-0.2-1.3-0.3-1.8-0.5c-0.6-0.2-1.1-0.5-1.5-0.8c-0.4-0.3-0.8-0.8-1.1-1.3c-0.3-0.5-0.4-1.2-0.4-1.9c0-0.8,0.2-1.6,0.5-2.2
				c0.3-0.6,0.8-1.1,1.4-1.5c0.6-0.4,1.2-0.7,1.9-0.9c0.7-0.2,1.5-0.3,2.2-0.3c1.1,0,2.1,0.2,3.1,0.6c1,0.4,1.8,1.1,2.4,2
				L149.1,13.9"/>
			<polyline  class="st1" points="154.9,0.4 157.9,0.4 157.9,16.6 164.7,9.8 168.8,9.8 161.5,17 169.5,25.6 165.2,25.6 
				157.9,17.4 157.9,25.6 154.9,25.6 154.9,0.4 			"/>
		</g>
	</g>
</g>
</svg>
