<?xml version="1.0" encoding="UTF-8"?>
<svg viewBox="0 0 194 194" version="1.1" xmlns="http://www.w3.org/2000/svg" xmlns:xlink="http://www.w3.org/1999/xlink">
    <!-- Generator: Sketch 52.2 (67145) - http://www.bohemiancoding.com/sketch -->
    <title>Group</title>
    <desc>Created with Sketch.</desc>
    <g id="Page-1" stroke="none" stroke-width="1" fill="none" fill-rule="evenodd">
        <g id="Artboard" transform="translate(-106.000000, -170.000000)" fill="#F3BB2D">
            <g id="logo" transform="translate(106.000000, 170.000000)">
                <g id="Group">
                    <path d="M88,98.4994608 C88,103.738721 92.2612792,108 97.4994608,108 C102.737643,108 107,103.738721 107,98.4994608 C107,93.2623574 102.737643,89 97.4994608,89 C92.2612792,89 88,93.2623574 88,98.4994608" id="Fill-1"></path>
                    <path d="M168.500539,89 C163.262358,89 159,93.2621156 159,98.5 C159,103.737884 163.262358,108 168.500539,108 C173.738721,108 178,103.737884 178,98.5 C178,93.2621156 173.738721,89 168.500539,89" id="Fill-3"></path>
                    <path d="M168.500539,161 C163.262358,161 159,165.262599 159,170.498921 C159,175.737401 163.262358,180 168.500539,180 C173.738721,180 178,175.737401 178,170.498921 C178,165.262599 173.738721,161 168.500539,161" id="Fill-4"></path>
                    <path d="M188.50601,9.57809208 C179.054092,-2.22454654 161.906671,-3.11930205 151.288891,6.89382554 C150.919921,7.24156006 150.543837,7.58319399 150.149457,7.89940872 L147.843144,9.74484196 C138.06393,17.5698856 123.945514,16.6985158 115.203075,7.72859176 L114.906273,7.42457824 C111.680077,4.19735779 107.799292,2.02452538 103.692856,0.902013913 C103.68879,0.900997145 103.684724,0.899980378 103.680658,0.89896361 C102.86547,0.677308268 102.043166,0.49632363 101.213747,0.356009698 C100.979965,0.316355759 100.743133,0.305171316 100.508335,0.271617984 C99.9065995,0.187226272 99.3058808,0.101817791 98.7000797,0.0611470855 C98.3433077,0.0367446625 97.9845027,0.0489458741 97.6267143,0.0387781978 C97.1428866,0.0275937538 96.6590589,0.00115779556 96.1752314,0.01640931 C95.7361273,0.0306440568 95.2990561,0.0835159734 94.8609684,0.120119608 C94.4594728,0.15367294 94.0569608,0.169941222 93.6564816,0.221796371 C93.1655388,0.286869498 92.6806947,0.392613332 92.1938178,0.486155954 C91.851276,0.551229081 91.5046684,0.59901716 91.1651759,0.678325035 C90.6437397,0.80033715 90.1324682,0.965053506 89.6181472,1.12061895 C89.3193124,1.21111128 89.0153956,1.28330177 88.7185936,1.38599531 C88.1849603,1.56901348 87.6625077,1.79473589 87.1390387,2.01537447 C86.8737467,2.1272189 86.602356,2.22177829 86.3401133,2.34277364 C85.8034306,2.59188171 85.2819945,2.88166048 84.7605584,3.16940572 C84.5247433,3.29955198 84.2818129,3.41241319 84.0490472,3.55069359 C83.5225288,3.86385802 83.0163395,4.21870992 82.5091336,4.57254504 C82.2956802,4.72200989 82.0740953,4.85520645 81.8636913,5.0107719 C81.3595348,5.38799268 80.87774,5.80486741 80.3949288,6.22377567 C80.2007879,6.3925591 79.9964825,6.54710778 79.8053909,6.72300858 C79.7403384,6.78299787 79.6691874,6.83281948 79.6051513,6.89382554 C79.2361819,7.24156006 78.8600975,7.58319399 78.4647005,7.89940872 L76.1594041,9.74484196 C66.4574403,17.5078628 52.4925079,16.7005493 43.7348211,7.93092852 C43.5925189,7.78044691 43.4339535,7.63911621 43.2865691,7.49066814 L43.2215166,7.42457824 C43.2103357,7.4133938 43.1971219,7.40322613 43.1859411,7.39204168 C42.8118894,7.01888796 42.454101,6.6345498 42.0515889,6.2796979 C38.451342,3.09924876 34.1223045,1.13383693 29.6184385,0.369227676 C29.5432215,0.357026465 29.4669881,0.351942627 29.3897384,0.339741415 C28.689408,0.226880209 27.9870448,0.140454961 27.2806159,0.0865662762 C26.9990606,0.0641973884 26.718522,0.0621638532 26.4369669,0.0489458741 C25.9256952,0.0275937538 25.4134071,0.00929193657 24.9021354,0.0184428452 C24.5799225,0.0235266834 24.2597424,0.0428452683 23.9375296,0.0601303179 C23.451669,0.0865662762 22.9658084,0.121136376 22.4819809,0.17502506 C22.1739982,0.209595159 21.8670319,0.251282632 21.5600656,0.297037175 C21.0386295,0.373294747 20.5202427,0.467854136 20.0028725,0.57766504 C19.7497777,0.630536957 19.4976995,0.684425641 19.2466377,0.745431699 C18.6306723,0.89489654 18.0228384,1.07181411 17.4190703,1.26805026 C17.2727022,1.31583834 17.1253178,1.35752581 16.9799662,1.40734743 C13.9499448,2.45055101 11.0825546,4.0621277 8.57295283,6.2796979 C8.43878213,6.39662617 8.32697323,6.52880596 8.19585188,6.64878454 C8.18365454,6.65996899 8.1734901,6.6721702 8.16129276,6.68335464 C7.50771888,7.28629785 6.89175344,7.9126267 6.31746224,8.56335798 C6.30424846,8.57759274 6.29001824,8.58877717 6.2778209,8.60402869 C6.19955467,8.69248747 6.13450221,8.78806363 6.05725243,8.87753918 C4.09043211,11.1805178 2.59930787,13.7448059 1.58997837,16.4555083 C1.58286326,16.4758437 1.57371526,16.4951622 1.56660014,16.5154976 C1.31248899,17.2018158 1.09598629,17.896268 0.903878262,18.5978376 C0.895746705,18.6303743 0.884565815,18.6629108 0.876434258,18.6954474 C0.685342672,19.4031176 0.528810202,20.1158718 0.399721737,20.8347265 C0.396672403,20.8540451 0.392606625,20.8733636 0.389557291,20.893699 C-0.310773043,24.8702771 -0.0617441147,28.9709011 1.14375919,32.8498695 C1.3013081,33.3674042 1.46190635,33.8829054 1.65299794,34.3912893 C1.71093528,34.5438044 1.78106996,34.6912357 1.84307308,34.8427341 C2.10429934,35.4965156 2.38992028,36.1401295 2.707051,36.7725591 C2.74262656,36.842716 2.78125145,36.9098227 2.81784346,36.9789629 C3.18681285,37.6978176 3.59339069,38.3993872 4.0355441,39.0867222 C4.03960988,39.0938396 4.0446921,39.1009569 4.05079077,39.109091 C4.71757843,40.1431437 5.44433632,41.1487269 6.2778209,42.093304 C6.62239562,42.482726 6.9954308,42.8294438 7.35626864,43.1934466 C7.37049886,43.2066645 7.3806633,43.2208994 7.39387708,43.2351341 L7.44368287,43.2819054 C7.75064914,43.5879524 8.05151674,43.9041672 8.37068035,44.1919124 C17.919161,53.5766776 17.8876512,69.0417132 8.18873676,78.301416 C6.72099075,79.6547337 5.45856655,81.1371809 4.3841846,82.7121539 C4.34860904,82.7640091 4.31709925,82.8158643 4.28254013,82.8667026 C3.81802495,83.5591213 3.39111822,84.2657749 3.00181993,84.9907302 C2.94489903,85.0974908 2.89001103,85.2042514 2.83410657,85.3120288 C2.48648252,85.9841122 2.1693518,86.6653465 1.88576375,87.3597988 C1.81867841,87.5214648 1.7546424,87.6831309 1.69162283,87.8458137 C1.4446268,88.4884109 1.22507475,89.1371086 1.03296673,89.7939405 C0.967914273,90.0115288 0.903878262,90.229117 0.844924476,90.4487388 C0.685342672,91.0506653 0.553204873,91.655642 0.438346632,92.2657026 C0.386507957,92.5422634 0.332636393,92.8178074 0.289945719,93.095385 C0.205580817,93.646473 0.14662703,94.1985778 0.0978376887,94.7527162 C0.068360795,95.0902831 0.034818123,95.4258164 0.0185550092,95.7644 C-0.00380677211,96.2493982 -0.0017738829,96.7333795 0.00330834014,97.2193945 C0.00635767396,97.6240679 0.00534122936,98.0277248 0.0287194554,98.4313815 C0.0520976813,98.8330047 0.0988541333,99.2295441 0.141544807,99.6291337 C0.191350593,100.114132 0.238107044,100.59608 0.315356835,101.078028 C0.362113287,101.361706 0.43123152,101.642334 0.487135973,101.927028 C0.601994214,102.512687 0.719901788,103.097328 0.876434258,103.675869 C0.906927597,103.785679 0.94758538,103.891424 0.979095163,104.001235 C2.21712469,108.325547 4.62813131,112.3733 8.20906566,115.666609 C17.9872627,125.092045 17.9537201,140.829575 8.02000696,150.122831 C7.91023094,150.225524 7.82078382,150.339402 7.71304069,150.443113 C7.22514728,150.914893 6.73623742,151.38769 6.2778209,151.907258 C6.21480134,151.978432 6.16092977,152.058756 6.09791021,152.130947 C6.01252886,152.229574 5.93731196,152.335317 5.85294706,152.436994 C5.3731852,153.010451 4.9218838,153.599159 4.50107573,154.20617 C4.35978993,154.408507 4.23070146,154.61491 4.09653077,154.820297 C3.77025205,155.320547 3.4612529,155.828931 3.17563196,156.348499 C3.01808304,156.633194 2.86561635,156.916872 2.71924833,157.205634 C2.50274563,157.635727 2.30453893,158.07192 2.11446379,158.51218 C1.9528491,158.88025 1.79021796,159.247303 1.64791571,159.621474 C1.53305747,159.925488 1.43852813,160.234585 1.33586722,160.541649 C0.465790637,163.123222 0.0226207877,165.810539 0.00737411857,168.507007 C0.00635767396,168.584281 0.00534122936,168.663589 0.00534122936,168.74188 C0.00737411857,169.415996 0.0368510122,170.08808 0.0937719102,170.76118 C0.101903467,170.870991 0.114100802,170.981819 0.124265248,171.09163 C0.187284814,171.750495 0.268600383,172.405293 0.383458623,173.059075 C0.402771071,173.170919 0.429198631,173.281747 0.451560412,173.393591 C0.775806242,175.108878 1.27894632,176.793663 1.95996421,178.425575 C2.15308868,178.892271 2.34621316,179.357951 2.56779809,179.814479 C2.69891944,180.081889 2.84732035,180.341165 2.98860616,180.604507 C3.26406264,181.121026 3.55171647,181.631443 3.86579785,182.131693 C4.00505076,182.353348 4.15141878,182.570936 4.29880326,182.789542 C4.65557531,183.321311 5.03470914,183.838845 5.43620477,184.346213 C5.58358924,184.534315 5.72995726,184.7214 5.88344039,184.904418 C6.01862752,185.066084 6.13755155,185.236901 6.2778209,185.396533 C6.5512445,185.704614 6.84804633,185.975074 7.13163437,186.266887 C7.36846596,186.510911 7.59818245,186.757985 7.84619493,186.995909 C8.29546345,187.423968 8.76201153,187.818474 9.23364182,188.206879 C9.43286497,188.372613 9.60870988,188.553596 9.81504814,188.714246 C9.89534727,188.778302 9.98174505,188.830157 10.0630606,188.891164 C10.2622838,189.042662 10.4665892,189.179926 10.669878,189.324307 C11.1628536,189.677125 11.6639609,190.011642 12.1772654,190.32379 C12.3571761,190.433601 12.5381033,190.539344 12.7210633,190.645088 C13.2862065,190.96842 13.8594813,191.268366 14.4429204,191.544927 C14.5892884,191.615084 14.7336236,191.688291 14.8810081,191.754381 C15.5996344,192.07873 16.3274087,192.374609 17.0683969,192.627784 C17.0836435,192.632869 17.0978738,192.639986 17.1131205,192.644053 C17.8937499,192.90943 18.6845438,193.135152 19.4844857,193.322237 C19.606459,193.350707 19.7294489,193.367992 19.8524387,193.395444 C20.4867,193.533725 21.1250273,193.65167 21.7684367,193.741145 C22.0215314,193.776733 22.2756426,193.800118 22.5287373,193.828587 C23.0532227,193.885526 23.5777081,193.92823 24.10321,193.952633 C24.3837487,193.965851 24.6622545,193.977035 24.9438097,193.981102 C25.4784596,193.98822 26.0131094,193.973985 26.5477592,193.948566 C26.7937388,193.936365 27.038702,193.932297 27.2836651,193.913996 C28.8581378,193.790967 30.4204132,193.523558 31.9521953,193.110749 C32.0924646,193.072112 32.2296847,193.025341 32.3689376,192.98467 C33.0113306,192.799619 33.6466084,192.590165 34.2757876,192.353257 C34.4313036,192.295302 34.5847868,192.232262 34.7392863,192.171256 C35.3765972,191.916047 36.002727,191.634403 36.6217418,191.327339 C36.7325342,191.271417 36.8443432,191.218545 36.9551356,191.161605 C38.3944211,190.416315 39.7808516,189.542912 41.0768185,188.502758 C41.1235749,188.466155 41.1621998,188.424468 41.2079398,188.386847 C41.3024691,188.311606 41.388867,188.220097 41.4823799,188.142822 C42.104444,187.622238 42.7082121,187.090468 43.2672567,186.528196 L43.8842385,185.877465 C53.2924498,175.972114 69.1235745,175.969064 78.4535196,185.949655 C89.0194613,197.252044 107.281922,196.653168 117.032675,184.154043 C124.159985,175.02042 124.063422,161.925469 116.821254,152.881321 C107.370352,141.0797 90.2229317,140.183927 79.6051513,150.196038 C79.2361819,150.543773 78.8600975,150.885407 78.4647005,151.202638 L76.1594041,153.048071 C66.4381279,160.82736 52.4345705,160.003778 43.6809496,151.18332 C43.3617859,150.843719 43.0466881,150.498018 42.755985,150.135032 L40.911138,147.826969 C33.1414354,138.113788 33.956624,124.123066 42.7509028,115.365646 C47.9032604,110.458726 50.5185725,103.947346 50.618184,97.3912282 C50.6242827,96.9784205 50.6496938,96.5666297 50.6374964,96.153822 C50.6324142,96.009441 50.6100524,95.8660767 50.6029373,95.7227125 C50.3163,89.8183429 47.975428,84.0075159 43.5843873,79.4279945 C43.2997828,79.1219475 43.0161948,78.8148836 42.755985,78.489518 L40.911138,76.1814555 C33.0997612,66.4154025 33.9586569,52.3230032 42.8860899,43.5747344 C42.9948495,43.4689906 43.1137735,43.3795151 43.2215166,43.2717377 L43.8842385,42.5742351 C53.2924498,32.6688849 69.1235745,32.6668513 78.4535196,42.6464257 C78.721861,42.9331541 79.0156135,43.1781951 79.2931028,43.4506888 C79.5756744,43.7272496 79.8541803,44.0068607 80.1469163,44.26817 C80.5331653,44.6128542 80.932628,44.9311025 81.3341236,45.248334 C81.6502379,45.497442 81.9643193,45.7465501 82.2885651,45.9783731 C82.6910771,46.2661184 83.1027372,46.5314947 83.5174466,46.792804 C83.8640542,47.011409 84.2116783,47.2249303 84.5664174,47.4252334 C84.9801104,47.6580733 85.3978691,47.8746447 85.8217265,48.0820653 C86.1967946,48.2661002 86.5718627,48.4420011 86.9530294,48.6067174 C87.3738374,48.7877021 87.7966784,48.9564855 88.225618,49.1140845 C88.6250808,49.2615158 89.0275929,49.3967459 89.4331542,49.522825 C89.8549788,49.6550049 90.2768033,49.7770169 90.70371,49.8868278 C91.1296003,49.9946052 91.556507,50.0871311 91.9864631,50.1735564 C92.4021889,50.2569313 92.8179148,50.3362392 93.23669,50.3992787 C93.6879914,50.4653687 94.1392928,50.51214 94.5926271,50.5548442 C94.9961556,50.5924647 95.3986676,50.6321186 95.8032126,50.6514371 C96.2799251,50.6727893 96.7556212,50.6697389 97.2323337,50.6656719 C97.6175662,50.6616048 98.0007659,50.6636384 98.3849819,50.6422862 C98.888122,50.6138167 99.3882127,50.5568777 99.8903363,50.498922 C100.246092,50.4582513 100.601848,50.4267315 100.95557,50.371826 C101.496319,50.2864176 102.030968,50.166439 102.565618,50.0454437 C102.875634,49.9763035 103.187683,49.9193645 103.495665,49.838023 C104.094351,49.680424 104.683889,49.4811376 105.271394,49.277784 C105.508225,49.1954259 105.749123,49.1313695 105.982906,49.041894 C106.711696,48.76635 107.426257,48.4470849 108.131669,48.1013839 C108.219084,48.0586797 108.310564,48.0261432 108.396962,47.9824222 C110.742915,46.7978878 112.946567,45.2320657 114.906273,43.2717377 L115.568994,42.5742351 C124.976189,32.6688849 140.807314,32.6668513 150.137259,42.6464257 C160.703201,53.9477978 178.966678,53.3499384 188.716414,40.850814 C195.843724,31.7161736 195.747162,18.6212234 188.50601,9.57809208" id="Fill-5"></path>
                </g>
            </g>
        </g>
    </g>
</svg>